<?xml version="1.0" encoding="UTF-8"?>
<svg width="16px" height="16px" viewBox="0 0 16 16" version="1.1" xmlns="http://www.w3.org/2000/svg" xmlns:xlink="http://www.w3.org/1999/xlink">
    <!-- Generator: Sketch 53 (72520) - https://sketchapp.com -->
    <title>API捉虫-灰</title>
    <desc>Created with Sketch.</desc>
    <g id="API捉虫-灰" stroke="none" stroke-width="1" fill="none" fill-rule="evenodd">
        <g transform="translate(1.000000, 1.000000)" fill="#999999" fill-rule="nonzero">
            <g id="分组-2">
                <rect id="Rectangle-path" x="0" y="0" width="14" height="2"></rect>
                <rect id="Rectangle-path" x="0" y="0" width="2" height="3"></rect>
                <rect id="Rectangle-path" x="12" y="0" width="2" height="3"></rect>
            </g>
            <g id="分组-2" transform="translate(7.000000, 12.500000) scale(-1, 1) rotate(-180.000000) translate(-7.000000, -12.500000) translate(0.000000, 11.000000)">
                <rect id="Rectangle-path" x="0" y="0" width="14" height="2"></rect>
                <rect id="Rectangle-path" x="0" y="0" width="2" height="3"></rect>
                <rect id="Rectangle-path" x="12" y="0" width="2" height="3"></rect>
            </g>
            <g id="分组" transform="translate(0.000000, 4.000000)">
                <rect id="Rectangle-path" x="0" y="0" width="2" height="6"></rect>
                <rect id="Rectangle-path" x="3" y="0" width="2" height="6"></rect>
                <rect id="Rectangle-path" x="1" y="0" width="3" height="1"></rect>
                <rect id="Rectangle-path" x="1" y="3" width="3" height="1"></rect>
                <rect id="Rectangle-path" x="7" y="0" width="4" height="1"></rect>
                <rect id="Rectangle-path" x="6" y="3" width="4" height="1"></rect>
                <rect id="Rectangle-path" x="6" y="0" width="2" height="6"></rect>
                <rect id="Rectangle-path" x="9" y="0" width="2" height="4"></rect>
                <rect id="Rectangle-path" x="12" y="0" width="2" height="6"></rect>
            </g>
        </g>
    </g>
</svg>