<?xml version="1.0" encoding="UTF-8"?>
<svg width="16px" height="16px" viewBox="0 0 16 16" version="1.1" xmlns="http://www.w3.org/2000/svg" xmlns:xlink="http://www.w3.org/1999/xlink">
    <!-- Generator: Sketch 53 (72520) - https://sketchapp.com -->
    <title>文档建议，你提了吗-灰</title>
    <desc>Created with Sketch.</desc>
    <g id="文档建议，你提了吗-灰" stroke="none" stroke-width="1" fill="none" fill-rule="evenodd">
        <path d="M2,14 L2,16 L0,14 L2,14 Z M2,14 L2,2 L9.33333333,2 L12,4 L12,6 L14,6 L14,3 L10,0 L0,0 L0,16 L4,16 L4,14 L2,14 Z M2,2 L0,2 L2,0 L2,2 Z M8.8,1.6 L10,2 L9.33333333,2 L8.8,1.6 Z M12.8,4.6 L12,3 L12,4 L12.8,4.6 Z M12,3 L12.8,4.6 L12,4 L12,3 Z M12,4 L12,5 L14,5 L14,3 L10,0 L0,0 L0,16 L4,16 L4,14 L2,14 L2,2 L9.33333333,2 L12,4 Z M10,2 L8.8,1.6 L9.33333333,2 L10,2 Z" id="路径" fill="#999999" fill-rule="nonzero"></path>
        <rect id="矩形" fill="#999999" x="4" y="4" width="6" height="2"></rect>
        <rect id="矩形" fill="#999999" x="4" y="8" width="3" height="2"></rect>
        <path d="M8.96446609,9.64213562 L10.6213203,9.64213562 L10.6213203,8.8137085 L8.96446609,8.8137085 L8.96446609,9.64213562 Z M12.6213203,14.7132034 L9.79289322,17.5416306 L6.96446609,14.7132034 L6.96446609,6.8137085 L12.6213203,6.8137085 L12.6213203,14.7132034 Z M9.79289322,14.7132034 L10.6213203,13.8847763 L10.6213203,11.6421356 L8.96446609,11.6421356 L8.96446609,13.8847763 L9.79289322,14.7132034 Z" id="合并形状" fill="#999999" fill-rule="nonzero" transform="translate(9.792893, 12.177670) rotate(-315.000000) translate(-9.792893, -12.177670) "></path>
    </g>
</svg>