<?xml version="1.0" encoding="UTF-8"?>
<svg width="16px" height="16px" viewBox="0 0 16 16" version="1.1" xmlns="http://www.w3.org/2000/svg" xmlns:xlink="http://www.w3.org/1999/xlink">
    <!-- Generator: Sketch 53 (72520) - https://sketchapp.com -->
    <title>文档“捉虫”活动-蓝</title>
    <desc>Created with Sketch.</desc>
    <g id="文档“捉虫”活动-蓝" stroke="none" stroke-width="1" fill="none" fill-rule="evenodd">
        <rect id="矩形" x="0" y="0" width="16" height="16"></rect>
        <path d="M2,14 L2,16 L0,14 L2,14 Z M2,14 L2,2 L9.33333333,2 L12,4 L12,6 L14,6 L14,3 L10,0 L0,0 L0,16 L7,16 L7,14 L2,14 Z M2,2 L0,2 L2,0 L2,2 Z M8.8,1.6 L10,2 L9.33333333,2 L8.8,1.6 Z M12.8,4.6 L12,3 L12,4 L12.8,4.6 Z M12,3 L12.8,4.6 L12,4 L12,3 Z M12,4 L12,6 L14,6 L14,3 L10,0 L0,0 L0,16 L7,16 L7,14 L2,14 L2,2 L9.33333333,2 L12,4 Z M10,2 L8.8,1.6 L9.33333333,2 L10,2 Z" id="路径" fill="#00A4FF" fill-rule="nonzero"></path>
        <path d="M12.6890668,14.1032803 C11.1551612,15.0092145 9.14636062,14.8032149 7.82842712,13.4852814 C6.26632996,11.9231842 6.26632996,9.39052429 7.82842712,7.82842712 C9.39052429,6.26632996 11.9231842,6.26632996 13.4852814,7.82842712 C14.8032149,9.14636062 15.0092145,11.1551612 14.1032803,12.6890668 L15.6066017,14.1923882 L14.1923882,15.6066017 L12.6890668,14.1032803 Z M12.0710678,12.0710678 C12.8521164,11.2900192 12.8521164,10.0236893 12.0710678,9.24264069 C11.2900192,8.4615921 10.0236893,8.4615921 9.24264069,9.24264069 C8.4615921,10.0236893 8.4615921,11.2900192 9.24264069,12.0710678 C10.0236893,12.8521164 11.2900192,12.8521164 12.0710678,12.0710678 Z" id="合并形状" fill="#00A4FF" fill-rule="nonzero"></path>
        <rect id="矩形" fill="#00A4FF" x="4" y="4" width="6" height="2"></rect>
        <rect id="矩形" fill="#00A4FF" x="4" y="8" width="2" height="2"></rect>
    </g>
</svg>