<?xml version="1.0" encoding="UTF-8"?>
<svg width="18px" height="18px" viewBox="0 0 18 18" version="1.1" xmlns="http://www.w3.org/2000/svg" xmlns:xlink="http://www.w3.org/1999/xlink">
    <title>gift</title>
	<g fill-rule="nonzero" fill="none"><path d="M0 0h18v18H0z"/><path d="M3.127 5C2.097 3.94 1.721 2.579 2.3 1.576 3.058.263 5.164.06 7.005 1.123 7.962 1.675 8.658 2.46 9 3.27c.342-.81 1.038-1.596 1.995-2.148 1.84-1.063 3.947-.86 4.705.453.58 1.003.203 2.364-.827 3.424h2.377c.414 0 .75.448.75 1v3c0 .552-.336 1-.75 1H16v8H2v-8H.75C.336 10 0 9.552 0 9V6c0-.552.336-1 .75-1h2.377zM10 16h4v-6h-4v6zm-2 0v-6H4v6h4zm2-8h6V7h-6v1zM8 8V7H2v1h6zm4.825-3.708c1.007-.581 1.395-1.432 1.209-1.754-.186-.322-1.117-.412-2.124.17-1.008.581-1.395 1.432-1.21 1.754.187.322 1.117.412 2.125-.17zm-7.65 0c1.008.582 1.938.492 2.124.17.186-.322-.201-1.173-1.209-1.754-1.007-.582-1.938-.492-2.124-.17-.186.322.202 1.173 1.21 1.754z" fill="#00A4FF"/></g>
</svg>